<svg width="32" height="32" viewBox="0 0 32 32" fill="none" xmlns="http://www.w3.org/2000/svg">
<g clip-path="url(#clip0_3_141)">
<path d="M13.8473 24.8644C11.6534 24.9336 4.40316 25.7135 4.70669 21.9943C4.7528 21.4256 5.07939 21.0068 5.67493 20.8493C6.66237 20.5842 7.88419 21.1067 9.26354 20.9223C9.64776 20.8724 10.1895 20.6418 10.0166 20.2845C9.97051 20.1846 9.83219 20.1231 9.67466 20.1462L7.66519 20.4036C5.16392 20.7225 3.29276 19.712 2.29379 17.4105C-0.134479 11.8317 3.6424 6.21052 8.48742 3.62088C11.4536 2.03021 14.8616 1.68825 18.1429 2.4759C20.6288 3.07529 22.7266 4.56606 24.0214 6.72538C24.8014 8.02404 25.297 9.43029 25.6236 10.9287C26.0155 12.7192 26.1923 14.4136 26.0386 16.2195C25.2663 25.3716 13.8511 24.8683 13.8511 24.8683L13.8473 24.8644Z" fill="#B2BCEF"/>
<path d="M11.5304 46.1271C11.8032 40.8326 12.3488 35.6418 13.125 30.3933L13.8319 25.6213C13.8319 25.6213 14.4428 19.2817 17.6395 16.1464C20.5212 13.3224 26.0194 13.4569 26.0194 16.9725C26.0194 19.5314 26.4074 21.9789 26.7532 24.5148C27.0645 26.7855 27.4679 28.9256 28.025 31.1349C28.244 32.0032 29.0931 35.0885 29.9423 35.3767C12.0568 64.27 11.5304 46.1233 11.5304 46.1233V46.1271Z" fill="#B2BCEF"/>
<path d="M43.5629 43.3031C42.7714 41.4512 41.6802 39.7721 40.2932 38.316C37.4 35.2768 29.8155 35.3498 29.8155 35.3498C29.8155 35.3498 25.0704 31.0119 19.6183 31.9878C14.1662 32.9638 11.8762 41.0247 11.8762 41.0247C11.8417 41.724 11.2 44.133 10.9733 46.7688C10.7466 49.4045 10.9695 46.838 10.9695 46.838C10.9695 46.838 10.9733 46.8418 10.9733 46.8456C10.9849 47.883 11.031 48.9051 11.104 49.9501C11.1962 51.2027 11.4382 52.3592 11.7956 53.5772C12.5371 56.1015 13.8742 58.3261 15.9682 59.9552C16.4754 60.3471 17.0402 60.6238 17.4474 61.0695C18.1044 61.3653 18.8614 61.5382 19.3954 62.0684C19.3954 62.0684 24.0214 64.0318 30.2765 63.6629C30.2765 63.6629 35.3675 63.4401 39.3826 60.9081C40.5928 60.1473 41.6264 59.206 42.4563 58.061L42.464 58.0495C42.5562 57.9227 42.6484 57.7959 42.733 57.6614L42.6484 57.6999L42.7214 57.5654L42.7752 57.6576C43.7204 56.2168 44.3159 54.6453 44.6656 52.9547C44.6656 52.9547 45.8797 47.2644 43.5513 43.3108L43.5629 43.3031Z" fill="#B2BCEF"/>
<path d="M8.84091 11.0978C8.62574 11.3898 8.2761 11.4282 7.99562 11.1977C7.75356 10.9979 7.68825 10.6137 7.7574 10.3255C7.81504 10.0988 7.9572 9.76839 8.32221 9.74149C8.64495 9.71844 8.83706 10.0181 8.92543 10.2102C9.05223 10.4869 9.02533 10.8519 8.84091 11.0978Z" fill="#3F466C"/>
</g>
<defs>
<clipPath id="clip0_3_141">
<rect width="32" height="32" fill="white"/>
</clipPath>
</defs>
</svg>
