<svg width="173" height="428" viewBox="0 0 173 428" fill="none" xmlns="http://www.w3.org/2000/svg">
<g clip-path="url(#clip0_180_988)">
<path d="M100.646 0H62.2939V357.824H100.646V0Z" fill="#632700"/>
<path d="M96.1652 4.21277H66.8193V357.824H96.1652V4.21277Z" fill="#7A3C00"/>
<path d="M97.3734 417.195H73.6287H22.3174V428H73.3432H97.6589H148.685V417.195H97.3734Z" fill="#7A3C00"/>
<path d="M5.16211 406.281V407.482V415.536L22.3171 428V417.195L5.16211 406.281Z" fill="#632700"/>
<path d="M165.862 406.281V407.482V415.536L148.685 428V417.195L165.862 406.281Z" fill="#632700"/>
<path d="M136.406 343.766H100.734H70.2895H34.5956L0 389.692L22.0314 406.15H72.2444H98.7787H148.97L171.001 389.692L136.406 343.766Z" fill="#FFDD95"/>
<path d="M148.97 406.15H98.7787H72.2444H22.0314L0 389.692V406.15L5.16188 410.21L18.9782 421.124H73.6282H97.3729H152.023L165.861 410.21L171.001 406.15V389.692L148.97 406.15Z" fill="#FBBD05"/>
<path d="M147.915 365.136C147.915 350.468 119.975 338.593 85.4893 338.593C51.0035 338.593 23.0635 350.489 23.0635 365.136C23.0635 376.224 39.0324 385.698 61.7007 389.692C61.4371 387.771 61.8765 386.374 61.8765 386.374H109.124C109.124 386.374 109.563 387.771 109.3 389.692C131.968 385.72 147.937 376.224 147.937 365.136H147.915Z" fill="#E0C28D"/>
<path d="M85.2262 392.464C84.8088 392.464 84.4135 392.421 84.062 392.355L74.4411 397.987L81.5799 391.657C74.5729 391.482 67.8954 390.805 61.7012 389.714C62.2942 393.861 66.27 400.453 85.4898 400.453C104.71 400.453 108.685 393.883 109.278 389.714C102.733 390.871 95.6378 391.547 88.2135 391.678C87.5545 392.159 86.4562 392.464 85.2262 392.464Z" fill="#FFF7E7"/>
<path d="M109.125 386.374H61.8771C61.8771 386.374 61.4378 387.771 61.7014 389.692C67.8957 390.783 74.5732 391.46 81.5802 391.635L81.8877 391.351C81.69 391.133 81.6021 390.893 81.6021 390.631C81.6021 389.627 83.2276 388.819 85.2264 388.819C87.2253 388.819 88.8507 389.627 88.8507 390.631C88.8507 391.002 88.6091 391.373 88.2137 391.657C95.6381 391.526 102.733 390.827 109.279 389.692C109.542 387.771 109.103 386.374 109.103 386.374H109.125Z" fill="#F2E9D7"/>
<path d="M85.1818 391.679L84.0615 392.333C84.4349 392.399 84.8303 392.443 85.2257 392.443C86.4777 392.443 87.576 392.137 88.213 391.657C87.3124 391.657 86.4118 391.679 85.4893 391.679C85.3794 391.679 85.2916 391.679 85.1818 391.679Z" fill="#4D1100"/>
<path d="M86.6321 390.849L85.2044 391.679C85.2044 391.679 85.4021 391.679 85.5119 391.679C86.4345 391.679 87.335 391.679 88.2356 391.657C88.631 391.373 88.8726 391.024 88.8726 390.631C88.8726 389.627 87.2472 388.819 85.2483 388.819C83.2495 388.819 81.624 389.627 81.624 390.631C81.624 390.893 81.7339 391.133 81.9096 391.351L83.4691 389.954L86.6321 390.849Z" fill="#3D0B00"/>
<path d="M84.0623 392.355C83.3155 392.224 82.6565 391.984 82.2391 391.657C82.0195 391.657 81.7998 391.657 81.5802 391.657L74.4414 397.987L84.0623 392.355Z" fill="#4D1100"/>
<path d="M81.8876 391.351L81.5801 391.635C81.7997 391.635 82.0194 391.635 82.239 391.635C82.1072 391.548 81.9974 391.438 81.9096 391.329L81.8876 391.351Z" fill="#3D0B00"/>
<path d="M82.2388 391.657C82.6781 391.984 83.3151 392.224 84.0619 392.355L85.1821 391.7C84.1937 391.7 83.2052 391.7 82.2168 391.657H82.2388Z" fill="#4D1100"/>
<path d="M85.1825 391.679L86.6103 390.849L83.4472 389.954L81.8877 391.351C81.8877 391.351 82.0854 391.569 82.2172 391.657C83.2056 391.657 84.1941 391.679 85.1825 391.7V391.679Z" fill="#3D0B00"/>
<path d="M111.453 28.8783C96.4064 21.0857 79.3832 19.907 63.0848 24.3381C51.1576 27.5904 41.4488 34.2261 34.3101 44.0923C22.1851 60.8778 17.9019 84.6702 23.1955 104.228C24.843 110.296 27.9181 115.513 32.6846 119.944C32.6846 119.944 77.2086 154.541 129.882 121.21L136.01 114.465C139.283 110.864 140.491 105.996 141.414 101.237C146.092 76.6594 136.12 41.6257 111.453 28.8783Z" fill="#B2BCEF"/>
<path d="M66.9722 157.379L87.9931 158.776C87.9931 158.776 112.243 155.96 120.282 147.382C120.458 147.163 120.744 147.054 121.051 146.945C121.293 146.814 121.534 146.683 121.754 146.552C129.684 140.222 129.156 130.094 129.859 121.232C77.1861 144.282 32.6621 119.966 32.6621 119.966L34.1558 131.251C35.0783 138.214 41.4263 144.5 48.5651 147.447L57.4172 155.894L66.9502 157.357L66.9722 157.379Z" fill="#AAB5E5"/>
<path d="M123.709 365.005C128.102 365.245 143.149 365.834 142.05 359.177C141.589 356.317 141.062 353.414 141.084 350.511C140.359 350.86 139.151 350.642 138.558 351.559C136.822 354.222 133.33 354.375 131.024 355.706C127.487 357.736 127.289 355.663 122.325 359.548C121.754 359.985 123.709 365.005 123.709 365.005Z" fill="#97A1D6"/>
<path d="M45.7755 365.813L45.4899 365.311C45.3581 365.07 33.365 365.9 32.5522 361.753C32.3546 360.77 32.4863 359.461 32.9696 358.718C33.7164 357.583 35.3858 351.188 34.2656 350.402C36.0448 351.581 38.4829 352.345 40.3939 354.353C42.1292 356.165 46.3026 357.453 46.4344 357.955C46.8518 359.504 46.039 364.852 45.7755 365.791V365.813Z" fill="#97A1D6"/>
<path d="M130.606 79.628C127.312 80.5229 124.632 72.272 127.356 70.9405C129.574 69.8709 131.793 72.0319 132.649 73.7781C133.506 75.5244 133.33 78.864 130.606 79.6062V79.628Z" fill="#4B5274"/>
<path d="M35.9569 71.8136C36.7257 74.3238 35.2101 78.6893 32.4425 79.5624C30.6633 80.13 29.1696 77.1614 29.2355 75.8081C29.3234 73.9527 30.2239 72.4029 32.2228 71.3552C33.1014 70.8968 35.4298 70.0237 35.9789 71.8136H35.9569Z" fill="#4B5274"/>
<path d="M121.688 146.596C121.688 146.596 121.732 146.552 121.776 146.53C121.556 146.661 121.315 146.814 121.073 146.923C121.293 146.836 121.513 146.749 121.688 146.596Z" fill="#B2BCEF"/>
<path d="M167.289 245.607C161.49 227.599 148.486 208.456 129.684 200.838C126.104 183.528 123.072 166.394 120.393 148.953C120.283 148.277 119.887 147.884 120.305 147.382C112.265 155.96 88.0154 158.776 88.0154 158.776L66.9945 157.379L57.4615 155.916L48.6094 147.469C45.4903 166.852 42.3492 185.886 38.2417 204.942L32.0035 209.46C22.3387 216.467 16.5178 226.813 11.8612 237.792C2.6796 259.467 0.592879 283.325 5.90852 306.048C9.84034 322.855 19.593 340.776 34.3099 350.424C36.0891 351.603 38.5272 352.367 40.4382 354.375C42.1735 356.187 46.3469 357.474 46.4787 357.976C46.8961 359.526 46.0834 364.874 45.8198 365.813C45.7539 366.075 45.7319 366.227 45.644 366.424C45.2047 367.428 44.6117 368.257 43.3377 368.454C40.3504 368.89 37.9781 371.881 38.703 374.391C38.9446 375.22 39.8452 376.225 40.9874 376.748C47.9065 379.957 55.4187 381.027 63.1286 379.913C66.687 379.411 72.6616 379.084 73.035 375.308C73.5402 370.135 63.5898 371.946 67.8951 365.769C74.4188 367.144 81.316 368.716 88.0154 368.039L100.052 366.795C100.492 367.777 100.624 370.309 99.1519 370.637C96.1866 371.313 93.0455 373.19 94.0999 376.552C94.627 378.189 97.3507 378.931 99.0421 379.368C104.973 380.874 110.86 380.612 116.68 379.608C120.151 378.997 132.517 377.185 130.738 371.837C129.354 367.712 123.358 368.672 123.753 365.005C123.753 365.005 121.798 359.985 122.369 359.548C127.334 355.641 127.553 357.736 131.068 355.706C133.396 354.375 136.889 354.222 138.602 351.559C139.195 350.642 140.381 350.861 141.128 350.511C148.86 344.923 155.493 338.419 160.436 329.906C175.35 304.193 176.185 273.088 167.311 245.607H167.289Z" fill="#B2BCEF"/>
<path d="M121.073 146.945C120.766 147.076 120.48 147.163 120.305 147.382C120.59 147.251 120.81 147.076 121.073 146.945Z" fill="#7D85AA"/>
<path d="M62.0522 161.701L48.5654 149.041L49.3781 148.233L68.6638 156.266L63.0846 167.114L62.0522 161.701Z" fill="#B2BCEF"/>
<path d="M48.5654 147.469C48.5654 147.469 80.7009 161.155 120.283 147.382L129.662 200.838C129.662 200.838 116.417 174.143 105.873 170.126C95.3299 166.11 60.1852 156.68 48.5654 147.447V147.469Z" fill="#7D85AA"/>
<path d="M51.7061 127.038C51.7061 127.038 78.7895 135.922 113.451 127.038C113.451 127.038 81.4034 139.938 51.7061 127.038Z" fill="#848FB2"/>
<path d="M32.9262 121.778L32.6846 119.966C32.6846 119.966 47.3136 126.82 52.6512 127.453C57.9888 128.086 60.9322 130.138 68.9935 130.312C77.0548 130.487 72.7935 131.775 72.7935 131.775C72.7935 131.775 57.2639 130.159 49.3783 127.627C41.4927 125.095 34.1123 121.559 33.1019 123.196L32.9042 121.778H32.9262Z" fill="#848FB2"/>
<path d="M63.4141 50.8807C63.4141 50.8807 100.711 54.9625 102.622 53.5219C104.533 52.0812 106.137 34.8373 106.137 34.8373L106.027 31.0174L102.996 25.2548L100.316 24.2726L63.4141 50.8807Z" fill="#848FB2"/>
<path d="M99.0419 35.9068H85.3574H78.1308H64.4463L58.4277 32.72V35.9068L59.8335 39.9668L63.5896 50.8807H78.5042H84.984H99.8766L103.655 39.9668L105.06 35.9068V32.72L99.0419 35.9068Z" fill="#FBBD05"/>
<path d="M95.6153 9.255H85.8846H77.5816H67.8509L58.4277 32.7199L64.4463 43.3064H78.1308H85.3574H99.0419L105.06 32.7199L95.6153 9.255Z" fill="#FFDD95"/>
<path d="M66.8188 4.21277L62.2939 0H100.668L96.1427 4.21277H66.8188Z" fill="#7A3C00"/>
</g>
<defs>
<clipPath id="clip0_180_988">
<rect width="173" height="428" fill="white"/>
</clipPath>
</defs>
</svg>
