<svg width="250" height="294" viewBox="0 0 250 294" fill="none" xmlns="http://www.w3.org/2000/svg">
<g clip-path="url(#clip0_180_814)">
<mask id="mask0_180_814" style="mask-type:luminance" maskUnits="userSpaceOnUse" x="2" y="2" width="246" height="290">
<path d="M233.249 2.76123H17.2606C9.38145 2.76123 2.99414 9.1741 2.99414 17.0848V277.479C2.99414 285.389 9.38145 291.802 17.2606 291.802H233.249C241.128 291.802 247.515 285.389 247.515 277.479V17.0848C247.515 9.1741 241.128 2.76123 233.249 2.76123Z" fill="white"/>
</mask>
<g mask="url(#mask0_180_814)">
<path d="M212.695 367.538C208.219 370.559 188.384 378.089 182.321 379.832C179.387 378.78 176.303 380.854 172.59 380.328C170.704 385.499 174.252 391.12 172.096 394.021C167.306 397.417 134.537 397.718 133.324 393.044C131.677 386.701 140.24 385.619 140.39 383.815C140.45 383.034 140.749 381.396 140.001 381.2C136.617 380.283 133.084 380.674 129.896 380.298C127.111 379.968 124.207 378.675 121.303 378.525C121.004 378.51 120.599 378.39 120.18 378.615C120.135 380.704 121.333 383.41 120.285 385.424C119.372 387.182 116.737 386.881 115.285 387.392L114.986 376.856C109.701 374.888 104.552 372.904 99.4168 370.333C98.6533 369.958 98.0545 369.732 97.5156 369.973C85.5246 362.022 75.5395 352.328 70.0455 338.365C67.2012 331.135 65.0904 323.906 63.9677 315.91C61.6473 299.212 63.0246 282.468 67.6353 266.236C69.3719 260.134 70.6892 254.693 71.6623 248.651L77.0515 214.924C79.4317 200.074 81.9617 185.736 83.5186 170.781C83.6234 169.774 82.1563 169.639 81.6024 169.624C71.5874 169.428 58.4587 164.739 58.4138 152.925C58.3838 147.064 63.6683 146.733 65.1503 143.983C52.0814 138.963 44.5066 126.413 40.794 113.397C37.321 101.177 38.818 88.477 44.1024 77.3097C44.3269 77.5502 45.2401 78.5422 45.6743 77.9109C46.5575 76.6785 49.8659 71.2226 48.3988 70.2607C57.0515 56.9442 69.3569 46.814 85.315 42.6056C110.135 36.0676 139.881 41.2229 155.06 64.0984C166.288 81.0222 169.282 102.545 162.83 121.708C161.183 126.593 160.884 131.207 161.393 136.543C163.279 156.548 166.198 176.147 171.273 195.625C172.815 201.517 176.947 216.126 181.378 219.463C206.004 223.731 225.21 238.806 236.004 261.427C247.695 285.895 246.827 315.429 236.019 339.928C230.944 351.411 222.83 360.744 212.695 367.598V367.538ZM130.15 86.2375C131.632 84.5692 130.914 82.1193 130.09 80.8418C129.192 79.429 127.456 78.1514 125.584 78.7376C122.98 79.5492 122.8 82.5552 124.028 84.7345C125.255 86.9139 128.129 88.5071 130.15 86.2375ZM81.2281 150.671C87.1713 151.633 92.9048 150.536 98.4437 148.311C100.046 147.665 101.872 147.079 102.201 145.14C94.3269 146.989 86.5725 148.026 78.8928 146.913C78.2641 147.65 78.5485 148.702 78.9826 149.514C79.2671 150.055 80.1204 150.491 81.2281 150.671Z" fill="#B2BCEF"/>
<path d="M44.1016 77.2646C45.2243 74.8749 44.8052 71.0272 48.4129 70.2156C49.88 71.1775 46.5716 76.6334 45.6884 77.8658C45.2393 78.4971 44.3411 77.4901 44.1165 77.2646H44.1016Z" fill="#3A4370"/>
<path d="M81.2267 150.671C80.119 150.491 79.2657 150.055 78.9812 149.514C78.5471 148.702 78.2776 147.65 78.8914 146.913C86.5711 148.026 94.3255 146.989 102.2 145.14C101.87 147.079 100.044 147.665 98.4423 148.311C92.9034 150.536 87.1848 151.633 81.2267 150.671Z" fill="#7D85AA"/>
<path d="M130.151 86.2376C128.13 88.4921 125.21 86.8238 124.028 84.7346C122.845 82.6454 122.98 79.5493 125.585 78.7377C127.471 78.1515 129.193 79.429 130.091 80.8418C130.914 82.1194 131.633 84.5693 130.151 86.2376Z" fill="#4B5274"/>
<path d="M57.1113 59.2441C57.1113 59.2441 77.5904 47.5658 95.1503 50.6019C112.725 53.6379 145.435 77.0245 145.435 77.0245L158.668 70.2009C158.668 70.2009 151.527 40.8174 107.89 39.9306C81.4676 39.3895 68.4287 46.5889 62.2461 52.3453C58.2191 56.1028 57.1113 59.2441 57.1113 59.2441Z" fill="#1A1C1C"/>
<path d="M62.2612 45.5992L38.9229 31.6514L123.309 11.0002L192.86 46.2455L158.683 63.4547L62.2612 45.5992Z" fill="#2B2B2B"/>
<path d="M38.9229 31.6514L82.1863 69.3615L158.683 63.4547L38.9229 31.6514Z" fill="#2B2B2B"/>
<path d="M192.548 46.0002C192.548 46.0002 202.787 63.3598 200.961 76.481C199.134 89.6171 187.353 65.1183 192.548 46.0002Z" fill="#4D1100"/>
<path d="M199.014 86.3556C200.709 86.3556 202.083 84.9762 202.083 83.2745C202.083 81.5728 200.709 80.1934 199.014 80.1934C197.319 80.1934 195.945 81.5728 195.945 83.2745C195.945 84.9762 197.319 86.3556 199.014 86.3556Z" fill="#7A3C00"/>
<path d="M82.1863 69.3615L98.8031 42.9539L123.309 11.0002L38.9229 31.6514L82.1863 69.3615Z" fill="#515151"/>
<path d="M83.5186 170.736C83.5186 170.736 125.42 165.896 133.593 159.508C141.767 153.121 158.743 177.154 163.893 189.313C169.043 201.472 176.138 210.73 176.138 210.73C176.138 210.73 166.722 183.857 163.968 158.456C161.213 133.056 161.513 127.359 161.513 127.359C161.513 127.359 142.246 148.867 127.171 157.389C112.096 165.911 108.578 164.934 83.5335 170.751L83.5186 170.736Z" fill="#AAB5E5"/>
</g>
<path d="M233.249 2.76101C241.123 2.76101 247.515 9.16376 247.515 17.0845V277.493C247.515 285.399 241.138 291.817 233.249 291.817H17.2605C9.38623 291.817 2.99401 285.414 2.99401 277.493V17.0695C2.99401 9.16376 9.37126 2.74598 17.2605 2.74598H233.263M233.249 -0.244982H17.2605C7.73952 -0.244982 0 7.5255 0 17.0845V277.493C0 287.037 7.73952 294.823 17.2605 294.823H233.263C242.769 294.823 250.524 287.052 250.524 277.493V17.0695C250.524 7.51047 242.784 -0.26001 233.263 -0.26001L233.249 -0.244982Z" fill="#EDEDED"/>
<path d="M185.333 284.973L177.249 271.972L163.013 277.488L178.881 229.783L201.201 237.268L185.333 284.973Z" fill="#4D1100"/>
<path d="M205.992 284.973L214.061 271.972L228.298 277.488L212.429 229.783L190.124 237.268L205.992 284.973Z" fill="#4D1100"/>
<path d="M219.645 259.287C212.654 260.219 206.038 262.969 200.439 267.283C197.624 269.447 193.717 269.447 190.903 267.283C185.304 262.984 178.672 260.219 171.696 259.287C168.178 258.821 165.424 256.041 164.96 252.524C164.032 245.505 161.292 238.861 156.996 233.24C154.84 230.414 154.84 226.492 156.996 223.666C161.277 218.045 164.032 211.387 164.96 204.383C165.424 200.851 168.193 198.085 171.696 197.619C178.687 196.687 185.304 193.937 190.903 189.623C193.717 187.459 197.624 187.459 200.439 189.623C206.038 193.922 212.669 196.687 219.645 197.619C223.163 198.085 225.918 200.866 226.382 204.383C227.31 211.402 230.05 218.045 234.346 223.666C236.502 226.492 236.502 230.414 234.346 233.24C230.065 238.861 227.31 245.52 226.382 252.524C225.918 256.056 223.148 258.821 219.645 259.287Z" fill="#FBBD05"/>
<path d="M195.663 255.319C210.446 255.319 222.429 243.287 222.429 228.446C222.429 213.604 210.446 201.572 195.663 201.572C180.88 201.572 168.896 213.604 168.896 228.446C168.896 243.287 180.88 255.319 195.663 255.319Z" fill="#FFDD95"/>
</g>
<defs>
<clipPath id="clip0_180_814">
<rect width="250" height="294" fill="white"/>
</clipPath>
</defs>
</svg>
