<svg width="140" height="200" viewBox="0 0 140 200" fill="none" xmlns="http://www.w3.org/2000/svg">
<path d="M70.5 189C93.4198 189 112 184.747 112 179.5C112 174.253 93.4198 170 70.5 170C47.5802 170 29 174.253 29 179.5C29 184.747 47.5802 189 70.5 189Z" fill="#6A73A7"/>
<path d="M45.0837 167.17C45.0837 167.17 45.2537 169.47 44.6137 170.21C43.9737 170.95 41.2037 170.6 41.1437 173.19C41.0837 175.78 55.4837 176.26 56.1137 173.65C56.7437 171.04 56.4337 167.95 56.4337 167.95C56.4337 167.95 52.9137 163.69 45.0737 167.17H45.0837Z" fill="#8992C6"/>
<path d="M81.3241 169.94C81.3241 169.94 81.7941 172.2 81.2641 173.02C80.7341 173.84 77.9341 173.86 78.2241 176.43C78.5141 179 92.8441 177.56 93.1241 174.88C93.4041 172.2 92.6741 169.19 92.6741 169.19C92.6741 169.19 88.6141 165.43 81.3141 169.94H81.3241Z" fill="#8992C6"/>
<path d="M121.244 126.19C119.314 125.18 117.584 124.32 116.034 123.58C115.344 123.25 114.814 122.67 114.524 121.96C108.074 106.45 96.1542 98.09 78.2142 97.72H77.0642C76.0442 97.72 75.0842 97.24 74.5042 96.4C69.4242 88.99 65.7242 58.82 65.6442 48.22C65.6742 47.51 65.6942 46.8 65.6942 46.06C65.6942 45.4 65.6742 44.74 65.6442 44.08C64.6042 24.51 55.0942 12 35.2742 12C15.4542 12 -3.23577 30.16 1.84423 48C6.92423 65.84 21.2342 55.99 21.2342 59.52C21.2342 63.28 8.24423 55.57 9.18423 64.79C10.1242 74.01 34.1642 70.6 34.5942 71.19C35.0242 71.78 25.0942 124.44 29.4442 144.96C29.6942 146.12 29.9842 147.08 30.3242 147.84C30.3942 147.99 30.4442 148.15 30.4842 148.31C32.7642 157.79 38.6542 164.67 46.7642 169.09C48.1042 169.82 48.7842 171.45 48.1842 172.85C48.0942 173.06 47.9842 173.24 47.8642 173.38C47.0242 174.26 43.5942 173.63 43.3642 176.85C43.1242 180.06 60.9742 181.62 61.9342 178.41C62.0542 177.99 62.1642 177.57 62.2542 177.14C62.5842 175.57 64.0442 174.52 65.6342 174.7C68.2542 175 70.9642 175.14 73.7242 175.14C77.9442 175.14 82.0142 174.79 85.8842 174.1C85.8842 174.62 85.8142 175.12 85.6242 175.44C85.0042 176.48 81.5142 176.63 81.9942 179.81C82.4642 182.99 100.224 180.6 100.454 177.26C100.584 175.42 100.244 173.56 99.8742 172.14C99.5042 170.72 100.144 169.39 101.354 168.7C108.864 164.41 114.364 157.95 116.724 149.21C117.104 147.79 118.404 146.79 119.874 146.88C129.784 147.5 137.144 151.2 139.354 146.64C142.194 140.79 128.024 129.7 121.244 126.17V126.19Z" fill="#B2BCEF"/>
<path d="M23.5039 34C24.3323 34 25.0039 33.1046 25.0039 32C25.0039 30.8954 24.3323 30 23.5039 30C22.6755 30 22.0039 30.8954 22.0039 32C22.0039 33.1046 22.6755 34 23.5039 34Z" fill="#1F234F"/>
</svg>
